# xmcd
#
# Track frame offsets: 
#        183
#        12575
#        30270
#        41525
#        54575
#        66950
#        79235
#        93043
#        108865
#        120003
#        131923
#        145690
#
# Disc length: 2127 seconds
#
# Revision: 8
# Processed by: cddbd v1.5.2PL0 Copyright (c) Steve Scherf et al.
# Submitted via: ExactAudioCopy v0.95b4
#
DISCID=91084d0c
DTITLE=Don Ho - Greatest Hits (Don Ho)
DYEAR=1989
DGENRE=Folk
TTITLE0=Tiny Bubbles
TTITLE1=I'll Remember You
TTITLE2=E Lei Ka Lei Lei (Beach Party Song)
TTITLE3=Beautiful Kauai
TTITLE4=Ain't No Big Thing!
TTITLE5=Sweet Someone
TTITLE6=Pearly Shells
TTITLE7=The Following Sea
TTITLE8=Down By The Shack, By The Sea
TTITLE9=A Lover's Prayer
TTITLE10=The Windward Side (Of The Island)
TTITLE11=Night Life
EXTD=
EXTT0=
EXTT1=
EXTT2=
EXTT3=
EXTT4=
EXTT5=
EXTT6=
EXTT7=
EXTT8=
EXTT9=
EXTT10=
EXTT11=
PLAYORDER=
